<svg version="1.1" xmlns="http://www.w3.org/2000/svg" style="display: block;" viewBox="0 0 2048 2048" width="1024" height="1024" preserveAspectRatio="none">
<path transform="translate(0,0)" fill="rgb(35,44,56)" d="M 1012.88 467.693 C 1320.08 461.605 1574.02 705.768 1579.99 1012.97 C 1585.96 1320.17 1341.7 1574.02 1034.5 1579.87 C 727.459 1585.72 473.781 1341.62 467.814 1034.59 C 461.847 727.549 705.849 473.777 1012.88 467.693 z M 1314.98 835.676 C 1287.08 856.82 1259.27 888.976 1247.17 922.251 C 1240.92 910.996 1234.93 899.076 1227.75 888.489 C 1195.39 840.317 1147.25 804.941 1091.61 788.459 C 1030.5 770.541 964.779 777.571 908.842 808.011 C 825.639 854.296 778.523 936.247 778.452 1030.23 C 778.447 1037.48 777.756 1046.39 776.972 1053.66 C 770.899 1112.28 736.767 1164.31 685.414 1193.24 C 659.003 1208.21 640.436 1211.42 611.777 1217.19 C 709.777 1426.16 948.651 1528.73 1167.66 1455.87 C 1386.66 1383.01 1516.5 1157.79 1469.79 931.763 C 1449.1 931.678 1431.89 933.118 1413.76 943.476 C 1391.21 956.361 1374.24 982.495 1371.43 1008.15 C 1370.1 1023.65 1370.87 1039.34 1369.52 1054.84 C 1359.75 1167.28 1296.59 1265.37 1199.52 1322.83 C 1119.78 1370 1024.4 1383.09 934.897 1359.14 C 857.759 1339.07 774.06 1281.8 733.323 1212.73 C 765.728 1186.68 784.601 1163.15 801.214 1125.12 C 819.334 1162.76 842.29 1192.43 875.315 1218.17 C 926.944 1258.16 992.532 1275.62 1057.21 1266.59 C 1157 1253.62 1240.2 1176.32 1262.79 1078.41 C 1268.22 1054.85 1268.63 1032.06 1269.5 1008.25 C 1270.91 969.672 1284.29 931.509 1308.63 901.128 C 1342.54 858.809 1383.97 838.564 1436.77 831.96 C 1339.42 622.582 1100.74 519.24 881.446 591.52 C 662.148 663.801 531.692 888.808 577.919 1115.04 C 635.04 1123.05 677.454 1081.67 677.263 1025.66 C 676.887 914.663 726.162 816.519 813.61 748.248 C 885.025 693.421 975.165 668.936 1064.51 680.096 C 1161.31 692.222 1241.26 738.048 1300.95 815.183 C 1305.87 821.544 1311.29 828.549 1314.98 835.676 z"/>
<path transform="translate(0,0)" fill="rgb(233,70,146)" d="M 950.878 895.124 C 954.964 894.829 958.879 894.677 962.923 895.471 C 972.81 897.413 1126.44 988.08 1143.76 999.263 C 1147.92 1001.95 1152.67 1004.83 1155.35 1009.09 C 1159.25 1015.3 1160.32 1024.01 1158.56 1031.09 C 1157.38 1035.85 1153.74 1040.17 1150.14 1043.35 C 1142.1 1050.43 1131.54 1055.54 1122.32 1060.91 C 1106.27 1070.07 1090.36 1079.46 1074.58 1089.08 C 1039.06 1108.26 1005.09 1131.5 969.16 1149.95 C 954.967 1157.25 938.065 1151.86 931.865 1136.89 C 930.452 1132.56 929.995 1126.93 929.984 1122.32 C 929.824 1054.98 929.497 987.566 930.108 920.237 C 930.238 905.958 938.06 899.073 950.878 895.124 z"/>
<path transform="translate(0,0)" fill="rgb(135,90,241)" d="M 577.919 1115.04 C 635.04 1123.05 677.454 1081.67 677.263 1025.66 C 676.887 914.663 726.162 816.519 813.61 748.248 C 885.025 693.421 975.165 668.936 1064.51 680.096 C 1161.31 692.222 1241.26 738.048 1300.95 815.183 C 1305.87 821.544 1311.29 828.549 1314.98 835.676 C 1287.08 856.82 1259.27 888.976 1247.17 922.251 C 1240.92 910.996 1234.93 899.076 1227.75 888.489 C 1195.39 840.317 1147.25 804.941 1091.61 788.459 C 1030.5 770.541 964.779 777.571 908.842 808.011 C 825.639 854.296 778.523 936.247 778.452 1030.23 C 778.447 1037.48 777.756 1046.39 776.972 1053.66 C 770.899 1112.28 736.767 1164.31 685.414 1193.24 C 659.003 1208.21 640.436 1211.42 611.777 1217.19 C 596.492 1184.6 585.127 1150.31 577.919 1115.04 z"/>
<path transform="translate(0,0)" fill="rgb(135,90,241)" d="M 1436.77 831.96 C 1451.59 863.841 1462.67 897.332 1469.79 931.763 C 1449.1 931.678 1431.89 933.118 1413.76 943.476 C 1391.21 956.361 1374.24 982.495 1371.43 1008.15 C 1370.1 1023.65 1370.87 1039.34 1369.52 1054.84 C 1359.75 1167.28 1296.59 1265.37 1199.52 1322.83 C 1119.78 1370 1024.4 1383.09 934.897 1359.14 C 857.759 1339.07 774.06 1281.8 733.323 1212.73 C 765.728 1186.68 784.601 1163.15 801.214 1125.12 C 819.334 1162.76 842.29 1192.43 875.315 1218.17 C 926.944 1258.16 992.532 1275.62 1057.21 1266.59 C 1157 1253.62 1240.2 1176.32 1262.79 1078.41 C 1268.22 1054.85 1268.63 1032.06 1269.5 1008.25 C 1270.91 969.672 1284.29 931.509 1308.63 901.128 C 1342.54 858.809 1383.97 838.564 1436.77 831.96 z"/>
</svg>